<svg width="20" height="18" viewBox="0 0 20 18" fill="none" xmlns="http://www.w3.org/2000/svg">
<path opacity="0.24" fill-rule="evenodd" clip-rule="evenodd" d="M15.9555 16.1776C16.1692 17.4345 15.0906 18.2242 13.9728 17.6312C13.9728 17.6312 9.77528 15.4276 9.81607 15.4059L5.62146 17.6312C4.50287 18.2246 3.42528 17.4335 3.63875 16.1776C3.63875 16.1776 4.41855 11.4682 4.45155 11.5007L1.05804 8.16277C0.153084 7.27264 0.565698 5.99401 1.81536 5.81077C1.81536 5.81077 6.49484 5.10388 6.47445 5.14558L8.57176 0.857338C9.13105 -0.286213 10.4636 -0.285345 11.0225 0.857338C11.0225 0.857338 13.1348 5.12981 13.0892 5.12312L17.7789 5.81077C19.0295 5.99415 19.4405 7.27332 18.5362 8.16277C18.5362 8.16277 15.1622 11.5102 15.1544 11.4644L15.9555 16.1776ZM5.60042 15.5573L8.96472 13.7718C9.45747 13.5104 10.138 13.5111 10.6296 13.7718L14.0021 15.561L13.3512 11.7764C13.2571 11.2228 13.468 10.5699 13.8657 10.1787L16.5832 7.50565L12.8261 6.95009C12.2752 6.86931 11.725 6.46516 11.4792 5.96262L9.79826 2.52567L8.11505 5.96262C7.86867 6.46638 7.31775 6.8695 6.76817 6.95009L3.00671 7.50163L5.72858 10.1787C6.12723 10.5708 6.33692 11.2241 6.24304 11.7764L5.60042 15.5573Z" fill="black"/>
</svg>
