<svg width="23" height="16" viewBox="0 0 23 16" fill="none" xmlns="http://www.w3.org/2000/svg">
<path opacity="0.24" fill-rule="evenodd" clip-rule="evenodd" d="M13.3317 0.5233C12.5462 0.810959 12.2107 0.888991 11.4529 0.888991C10.6951 0.888991 10.3597 0.810959 9.57414 0.5233L9.51277 0.500814C8.52119 0.137543 7.93183 0 6.95764 0C4.59412 0 2.4245 2.2826 1.52703 5.06479C0.838382 7.19961 0.654522 8.56702 0.596313 11.5385C0.653806 14.4925 1.91977 15.9856 4.20928 16C5.64438 15.9918 6.62892 15.363 7.5389 14.2208C7.67936 14.0445 8.06574 13.5226 8.10673 13.4672L8.11026 13.4625C9.04691 12.235 10.0153 11.5652 11.4557 11.5556C12.8905 11.5652 13.8589 12.235 14.7956 13.4625L14.7991 13.4672L14.7991 13.4673L14.7994 13.4677C14.842 13.5252 15.2268 14.045 15.3669 14.2208C16.2769 15.363 17.2614 15.9918 18.6854 16C20.9861 15.9856 22.252 14.4925 22.3095 11.5728C22.2513 8.56702 22.0674 7.19961 21.3788 5.06479C20.4813 2.2826 18.3117 0 15.9482 0C14.974 0 14.3846 0.137543 13.3931 0.500814L13.3317 0.5233ZM8.94218 2.18912C9.91527 2.54546 10.5464 2.66675 11.4529 2.66675C12.3594 2.66675 12.9906 2.54546 13.9637 2.18912L14.0253 2.16655C14.8323 1.87087 15.2313 1.77777 15.9482 1.77777C17.3546 1.77777 18.9678 3.47491 19.6539 5.60188C20.2831 7.55253 20.4453 8.75828 20.5004 11.5726C20.4606 13.5618 19.9071 14.2145 18.685 14.2222C17.9213 14.2177 17.3941 13.8811 16.7918 13.125C16.6918 12.9995 16.4093 12.6193 16.2933 12.4632L16.2933 12.4632L16.293 12.4627L16.2929 12.4626L16.2433 12.396C15.0016 10.7687 13.5889 9.79183 11.4473 9.77781C9.3169 9.79183 7.90426 10.7687 6.66249 12.396L6.61296 12.4626L6.61294 12.4626C6.49726 12.6183 6.21418 12.9993 6.11406 13.125C5.5117 13.8811 4.9845 14.2177 4.20974 14.2222C2.99869 14.2145 2.44528 13.5618 2.40544 11.5384C2.46057 8.75827 2.6227 7.55253 3.25194 5.60188C3.93805 3.47491 5.55119 1.77777 6.95765 1.77777C7.67458 1.77777 8.07349 1.87087 8.88057 2.16655L8.94218 2.18912ZM15.9766 5.77777C15.4769 5.77777 15.0718 5.3798 15.0718 4.88889C15.0718 4.39797 15.4769 4 15.9766 4C16.4762 4 16.8813 4.39797 16.8813 4.88889C16.8813 5.3798 16.4762 5.77777 15.9766 5.77777ZM15.0718 8.44443C15.0718 8.93535 15.4769 9.33331 15.9766 9.33331C16.4762 9.33331 16.8813 8.93535 16.8813 8.44443C16.8813 7.95351 16.4762 7.55554 15.9766 7.55554C15.4769 7.55554 15.0718 7.95351 15.0718 8.44443ZM17.786 7.55554C17.2864 7.55554 16.8813 7.15757 16.8813 6.66666C16.8813 6.17574 17.2864 5.77777 17.786 5.77777C18.2857 5.77777 18.6908 6.17574 18.6908 6.66666C18.6908 7.15757 18.2857 7.55554 17.786 7.55554ZM13.2624 6.66666C13.2624 7.15757 13.6674 7.55554 14.1671 7.55554C14.6668 7.55554 15.0718 7.15757 15.0718 6.66666C15.0718 6.17574 14.6668 5.77777 14.1671 5.77777C13.6674 5.77777 13.2624 6.17574 13.2624 6.66666ZM6.92926 9.33331C5.43026 9.33331 4.21507 8.13941 4.21507 6.66666C4.21507 5.1939 5.43026 4 6.92926 4C8.42827 4 9.64346 5.1939 9.64346 6.66666C9.64346 8.13941 8.42827 9.33331 6.92926 9.33331ZM7.83399 6.66666C7.83399 7.15757 7.42893 7.55554 6.92926 7.55554C6.4296 7.55554 6.02453 7.15757 6.02453 6.66666C6.02453 6.17574 6.4296 5.77777 6.92926 5.77777C7.42893 5.77777 7.83399 6.17574 7.83399 6.66666Z" fill="black"/>
</svg>
