<svg width="21" height="18" viewBox="0 0 21 18" fill="none" xmlns="http://www.w3.org/2000/svg">
<path opacity="0.24" fill-rule="evenodd" clip-rule="evenodd" d="M6.86403 0C5.37741 0 4.17227 1.20746 4.17227 2.69744V12.6H1.48051C0.984966 12.6 0.583252 13.0042 0.583252 13.4991V15.3C0.583252 16.7912 1.79142 18 3.27501 18H14.0421C15.5284 18 16.7338 16.7944 16.7338 15.3045V5.4H19.4256C19.9246 5.4 20.3228 4.99813 20.3228 4.5024V2.70439C20.3228 1.21111 19.1187 0 17.6311 0H6.86403ZM5.81424 16.2C5.91303 15.9193 5.96677 15.6172 5.96677 15.3026V2.69743C5.96677 2.20204 6.36801 1.79999 6.86403 1.79999C7.3579 1.79999 7.76128 2.20429 7.76128 2.69999V4.50093C7.76128 4.99747 8.15954 5.39999 8.65853 5.39999H14.9393V15.3045C14.9393 15.7991 14.5385 16.2 14.0421 16.2H5.81424ZM2.37775 14.4V15.3C2.37775 15.7957 2.78114 16.2 3.27501 16.2C3.77103 16.2 4.17226 15.798 4.17226 15.3026V14.4H2.37775ZM9.55579 3.60001V2.7C9.55579 2.38442 9.50168 2.08149 9.4023 1.79999H17.6311C18.1265 1.79999 18.5283 2.20414 18.5283 2.70439V3.60001H9.55579Z" fill="black"/>
</svg>
