<svg width="21" height="19" viewBox="0 0 21 19" fill="none" xmlns="http://www.w3.org/2000/svg">
<g opacity="0.24">
<path fill-rule="evenodd" clip-rule="evenodd" d="M2.11496 10.5921C1.76456 10.9455 1.19645 10.9455 0.846051 10.5921C0.495652 10.2388 0.495652 9.66595 0.846051 9.31262L9.81859 0.264999C10.169 -0.0883329 10.7371 -0.0883329 11.0875 0.264999L20.06 9.31262C20.4104 9.66595 20.4104 10.2388 20.06 10.5921C19.7096 10.9455 19.1415 10.9455 18.7911 10.5921L18.5283 10.3274V17.1945C18.5283 18.1933 17.726 19 16.733 19H4.17305C3.18244 19 2.37776 18.1934 2.37776 17.1945V10.3274L2.11496 10.5921ZM4.17304 17.1905L6.86402 17.191V11.7597C6.86402 11.2612 7.26533 10.8571 7.75861 10.8571H13.1475C13.6415 10.8571 14.0421 11.2609 14.0421 11.7597V17.1929L16.7338 17.1945V8.51944L10.453 2.19166L4.17222 8.51948C4.17203 10.2308 4.17304 17.1905 4.17304 17.1905ZM12.2475 12.6653V17.1923L8.65853 17.1914V12.6667L12.2475 12.6653Z" fill="black"/>
</g>
</svg>
