<svg width="29" height="28" viewBox="0 0 29 28" fill="none" xmlns="http://www.w3.org/2000/svg">
<path opacity="0.24" d="M14.6172 28C22.2485 28 28.4349 21.732 28.4349 14C28.4349 6.26801 22.2485 0 14.6172 0C6.98586 0 0.799438 6.26801 0.799438 14C0.799438 21.732 6.98586 28 14.6172 28Z" fill="black"/>
<path fill-rule="evenodd" clip-rule="evenodd" d="M16.5928 8.66611L17.1205 9.20512C17.294 9.392 17.3807 9.61012 17.3807 9.8592C17.3807 10.1133 17.294 10.329 17.1205 10.5063L13.7012 14L17.1204 17.4937C17.2939 17.671 17.3807 17.8867 17.3807 18.1407C17.3807 18.3899 17.2939 18.608 17.1204 18.7949L16.5927 19.3268C16.4145 19.5089 16.2011 19.6 15.9525 19.6C15.6992 19.6 15.4881 19.5089 15.3193 19.3268L10.7393 14.647C10.561 14.4744 10.4719 14.2589 10.4719 14C10.4719 13.746 10.561 13.528 10.7393 13.3459L15.3193 8.66611C15.4929 8.48876 15.7039 8.39999 15.9525 8.39999C16.1964 8.39999 16.4098 8.48876 16.5928 8.66611Z" fill="white"/>
</svg>
