<svg width="21" height="16" viewBox="0 0 21 16" fill="none" xmlns="http://www.w3.org/2000/svg">
<path opacity="0.24" fill-rule="evenodd" clip-rule="evenodd" d="M2.3734 0C1.39067 0 0.583252 0.793984 0.583252 1.77341V14.2266C0.583252 15.2066 1.38704 16 2.37857 16H18.5275C19.5184 16 20.3228 15.2042 20.3228 14.2225V4.44412C20.3228 3.4608 19.5178 2.66667 18.5247 2.66667H10.4564L9.18551 0.742815C8.91434 0.332343 8.29226 0 7.79572 0H2.3734ZM18.5275 14.2222L2.37776 14.2266L2.37341 1.77777L7.76128 1.78212L8.95491 3.64019C9.28644 4.14203 9.85103 4.44444 10.4564 4.44444L18.5283 4.44412L18.5275 14.2222Z" fill="black"/>
</svg>
