<svg width="19" height="17" viewBox="0 0 19 17" fill="none" xmlns="http://www.w3.org/2000/svg">
<path opacity="0.24" fill-rule="evenodd" clip-rule="evenodd" d="M13.0063 0C11.6412 0 10.396 0.530866 9.45312 1.40391C8.5102 0.530866 7.26503 0 5.9 0C2.9565 0 0.570312 2.46848 0.570312 5.51351C0.570312 9.95785 4.99269 14.2534 9.07856 16.7595C9.28542 16.8923 9.62402 16.8905 9.83031 16.7577C13.8892 14.2432 18.3359 9.95763 18.3359 5.51351C18.3359 2.46848 15.9498 0 13.0063 0ZM9.45815 14.8252C5.06561 11.8546 2.34687 8.38441 2.34687 5.51351C2.34687 3.48349 3.93766 1.83783 5.9 1.83783C6.78787 1.83783 7.62055 2.17359 8.26831 2.77334L9.12309 3.56478C9.30784 3.73584 9.60089 3.73354 9.78316 3.56478L10.6379 2.77334C11.2857 2.17359 12.1184 1.83783 13.0063 1.83783C14.9686 1.83783 16.5594 3.48349 16.5594 5.51351C16.5594 8.45823 13.8508 11.8546 9.45815 14.8252Z" fill="black"/>
</svg>
