<svg width="116" height="25" viewBox="0 0 116 25" fill="none" xmlns="http://www.w3.org/2000/svg">
<rect x="8.79639" y="3.99878" width="20.7266" height="17" fill="white"/>
<path fill-rule="evenodd" clip-rule="evenodd" d="M12.422 24.8219L19.8413 24.9575C19.8531 24.9575 19.8767 24.9575 19.8767 24.9752C24.0083 25.0518 28.0338 24.8101 32.1536 24.5094C35.4412 24.2794 36.2203 21.8974 36.6276 19.0554C37.1352 15.6238 37.2474 12.1509 36.9817 8.69571C36.9691 8.53257 36.9568 8.36797 36.9444 8.20234C36.6974 4.89592 36.4198 1.17908 32.5077 0.494059C31.6755 0.346653 30.8256 0.216936 29.9815 0.193351C21.9897 -0.0660825 13.9271 -0.130941 5.91756 0.423304C3.54481 0.576606 2.01019 1.97991 1.62063 4.3325C0.930057 8.52472 0.7884 12.829 1.15435 17.0566C1.15891 17.1083 1.16348 17.1601 1.16806 17.2122C1.42967 20.1861 1.73536 23.6611 5.2565 24.3797C7.15216 24.7736 9.08225 24.7893 11.016 24.8051C11.4846 24.8089 11.9534 24.8127 12.422 24.8219ZM19.387 15.5213C18.09 16.266 16.7899 17.0124 15.4794 17.7641V7.16269C16.8905 7.97127 18.2917 8.77615 19.6944 9.58185C21.3602 10.5387 23.028 11.4967 24.7166 12.4634C22.9327 13.4856 21.1627 14.5019 19.387 15.5213Z" fill="#FF0000"/>
<path fill-rule="evenodd" clip-rule="evenodd" d="M96.4233 22.7469C96.506 22.4312 96.5913 22.1054 96.6843 21.7264C96.7557 21.8258 96.8129 21.9077 96.8624 21.9785L96.8629 21.9793L96.8631 21.9795C96.9276 22.072 96.9791 22.1457 97.0325 22.2157C98.573 24.2381 101.678 23.8844 102.628 21.5495C102.917 20.8419 103.147 20.0695 103.183 19.3148C103.271 16.8443 103.307 14.3797 103.259 11.9091C103.236 10.9481 103.041 9.96339 102.74 9.04358C102.274 7.56362 100.958 6.88556 99.4171 7.18626C98.4491 7.38674 97.6995 7.9056 97.121 8.70159C97.0866 8.74658 97.0498 8.79038 97.0037 8.84525L97.0035 8.8454L97.0035 8.84545L97.0034 8.84557L97.0033 8.84561C96.9467 8.91294 96.8761 8.99695 96.7787 9.12023V0.865509H93.3907V23.2417H96.2947C96.3373 23.0754 96.38 22.9125 96.4233 22.7469ZM96.8495 19.6627V15.5707V11.4787C96.8495 10.7889 97.18 10.27 97.7231 9.90442C98.4432 9.42683 99.175 9.66858 99.4407 10.4882C99.5823 10.9422 99.6945 11.4257 99.6945 11.8915C99.6768 14.3973 99.6177 16.8974 99.5528 19.3974C99.5469 19.6627 99.4348 19.928 99.3226 20.1815C99.057 20.7889 98.5258 21.0424 97.8706 20.8891C97.2037 20.7358 96.8495 20.329 96.8495 19.6627ZM87.6418 7.50466H91.1891V23.2535H88.4209C88.3299 22.713 88.2388 22.1579 88.1345 21.5221L88.1022 21.3254C87.9794 21.5056 87.889 21.6435 87.8083 21.7665L87.8083 21.7665L87.8082 21.7667L87.8078 21.7673C87.7646 21.8331 87.7242 21.8947 87.6831 21.9563C86.7624 23.283 85.4579 23.737 83.9174 23.4952C82.6012 23.283 81.8103 22.2688 81.6332 20.6061C81.5801 20.1108 81.5565 19.6096 81.5565 19.1143C81.5486 16.6603 81.5512 14.2011 81.5538 11.7436V11.7423V11.7409V11.7395V11.7381V11.7367V11.7354V11.734V11.7327V11.7314V11.7301V11.7288V11.7275V11.7262V11.7248C81.5552 10.4982 81.5565 9.27201 81.5565 8.04711V7.49287H85.1451V8.13556C85.1451 9.02169 85.1444 9.90745 85.1437 10.793L85.1436 10.8062V10.8067V10.8073V10.8078V10.8084V10.8089V10.8095V10.81C85.1414 13.4779 85.1392 16.1441 85.1569 18.8136C85.1569 19.3207 85.21 19.8455 85.2986 20.3525C85.3989 20.8714 85.7767 21.0601 86.2843 21.0247C87.1047 20.9598 87.6713 20.3525 87.6713 19.5389V8.20041C87.6418 7.97046 87.6418 7.7582 87.6418 7.50466ZM66.7828 7.49287H63.2178L63.2119 7.9174C63.2119 11.744 63.2119 15.5884 63.2237 19.415C63.2237 19.8926 63.2709 20.3643 63.3359 20.8419C63.5719 22.369 64.3452 23.3006 65.6083 23.4893C67.1842 23.7311 68.4768 23.2358 69.3976 21.8856C69.4979 21.7264 69.5983 21.5731 69.7753 21.3077C69.8355 21.6602 69.8893 21.9784 69.9398 22.2765C69.9982 22.6219 70.052 22.9402 70.1059 23.2535H72.8623V7.51645H69.315V8.224V19.5035C69.3091 20.3231 68.8192 20.8832 68.0105 20.9952C67.4262 21.0719 67.0839 20.8832 66.9481 20.2995C66.8419 19.8042 66.7946 19.2794 66.7946 18.7723C66.7769 16.1239 66.7792 13.4721 66.7814 10.817C66.7821 9.9314 66.7828 9.04545 66.7828 8.15914V7.49287ZM61.3881 15.9009C61.3786 16.3254 61.3541 16.75 61.3295 17.1745C61.3234 17.2806 61.3172 17.3867 61.3113 17.4929C61.2997 17.6299 61.2885 17.7719 61.277 17.9177C61.1554 19.4655 60.9999 21.4431 59.8239 22.5047C59.0035 23.2358 57.9647 23.5011 56.8905 23.5365C56.4124 23.5483 55.9284 23.5483 55.4503 23.4834C53.1897 23.1415 52.1391 22.145 51.7613 19.6627C51.3304 16.7971 51.295 13.8844 51.8085 11.0188C52.3397 8.05301 54.1695 7.00348 57.0144 7.19806C59.6705 7.38674 60.8569 9.12612 61.1697 11.6025C61.3409 13.0235 61.4235 14.4622 61.3881 15.9009ZM57.7797 14.4937C57.7777 14.7822 57.7758 15.0706 57.7758 15.3584C57.7758 16.2922 57.7398 17.226 57.7038 18.1579C57.6873 18.5853 57.6708 19.0122 57.6578 19.4386C57.6578 19.7806 57.5397 20.1285 57.404 20.4469C57.2328 20.8596 56.9259 21.0896 56.4596 21.0896C55.9815 21.0896 55.6156 20.8537 55.4739 20.4233C55.1063 19.3124 55.1459 18.1172 55.1849 16.9389C55.1954 16.6225 55.2058 16.3073 55.2083 15.9952C55.2201 14.415 55.2319 12.829 55.2319 11.2488C55.2319 11.0321 55.2948 10.8101 55.3564 10.5928L55.3677 10.553C55.5565 9.93391 55.9225 9.61551 56.4419 9.60372C56.9731 9.59192 57.3981 9.91032 57.5397 10.5766C57.6637 11.1544 57.7404 11.744 57.764 12.3278C57.7893 13.0482 57.7845 13.7716 57.7797 14.4937ZM46.5555 12.3926C46.6403 11.9788 46.7237 11.5675 46.8069 11.158L46.8069 11.1579L46.8069 11.1579C47.0305 10.0564 47.2514 8.96785 47.4881 7.87612C47.6772 6.99164 47.8765 6.10715 48.076 5.22207L48.076 5.22205L48.076 5.22202L48.076 5.22199C48.306 4.20134 48.5362 3.17991 48.7512 2.15678C48.8515 1.69098 49.0404 1.57895 49.4831 1.59074C50.1588 1.6159 50.8435 1.61124 51.5478 1.60645C51.8339 1.60451 52.1232 1.60254 52.4165 1.60254C52.1131 2.71753 51.8147 3.78284 51.5212 4.83039L51.4427 5.11079C50.4333 8.68391 49.424 12.2688 48.4265 15.8537C48.3498 16.1308 48.3144 16.4315 48.3144 16.7264C48.3065 18.0312 48.3092 19.3334 48.3118 20.6364V20.6365V20.6365V20.6366C48.3131 21.2884 48.3144 21.9404 48.3144 22.5931V23.2299H44.8497C44.8458 23.1709 44.8405 23.112 44.8353 23.053C44.8248 22.9351 44.8143 22.8172 44.8143 22.6992C44.8143 22.3453 44.8053 21.9908 44.7962 21.6364C44.777 20.8809 44.7578 20.1262 44.8261 19.3797C45.0476 17.079 44.4371 14.94 43.8269 12.802C43.7381 12.4908 43.6492 12.1796 43.563 11.8679C43.1144 10.2464 42.6629 8.622 42.2113 6.9976C41.7598 5.37318 41.3083 3.74877 40.8597 2.1273C40.8333 2.04148 40.8161 1.95196 40.7978 1.85668C40.7834 1.78176 40.7683 1.70328 40.7476 1.62023H44.2831C45.0268 5.19924 45.7764 8.77824 46.5555 12.3926ZM108.371 16.5023H114.344C114.344 15.7715 114.35 15.0608 114.357 14.3597V14.3592V14.3587C114.364 13.5385 114.371 12.7314 114.368 11.9209C114.344 11.2665 114.232 10.6061 114.079 9.96339C113.742 8.59546 112.969 7.55183 111.517 7.29829C110.62 7.14499 109.681 7.10961 108.772 7.19806C107.102 7.36315 106.022 8.34782 105.526 9.95159C105.402 10.3407 105.29 10.724 105.225 11.1249C104.859 13.5306 104.924 15.954 105.101 18.3537C105.166 19.3266 105.467 20.2995 105.786 21.2311C106.128 22.2275 106.889 22.8761 107.911 23.1768C109.292 23.5837 110.679 23.5837 112.03 23.053C113.748 22.3867 114.769 20.2287 114.202 18.5483C113.518 18.5193 112.827 18.4815 112.126 18.4432L112.126 18.4432C111.83 18.427 111.533 18.4107 111.234 18.395L111.228 18.4977L111.228 18.4985C111.213 18.7781 111.202 18.9975 111.18 19.2028C111.157 19.4622 111.121 19.7157 111.068 19.9693C110.903 20.7476 110.49 21.1014 109.782 21.0896C109.103 21.0837 108.672 20.7476 108.583 19.9634C108.494 19.1491 108.457 18.3287 108.418 17.4843C108.404 17.1608 108.389 16.8338 108.371 16.5023ZM110.95 14.4327C110.95 14.1331 110.951 13.8381 110.952 13.5463C110.954 12.6838 110.956 11.85 110.938 11.0129C110.938 10.7476 110.838 10.4705 110.738 10.2169C110.537 9.72164 110.118 9.58603 109.616 9.58603C109.115 9.58603 108.796 9.83957 108.672 10.2936C108.363 11.4062 108.39 12.5386 108.416 13.6777C108.422 13.933 108.428 14.1887 108.43 14.4445C109.333 14.4327 110.153 14.4327 110.95 14.4327ZM72.0891 4.49169H75.601L75.6069 23.2299H79.0834V4.474H82.5717V1.64971H72.0891V4.49169Z" fill="black"/>
</svg>
