<svg width="19" height="20" viewBox="0 0 19 20" fill="none" xmlns="http://www.w3.org/2000/svg">
<path opacity="0.24" fill-rule="evenodd" clip-rule="evenodd" d="M15.227 17.2729C16.944 17.2729 18.3359 15.8484 18.3359 14.0911V0.929289C18.3375 0.854305 18.3299 0.777901 18.3124 0.701509C18.2003 0.212723 17.7222 -0.0904877 17.2446 0.0242692L5.73026 2.79093C5.33375 2.88621 5.06223 3.23961 5.01172 3.63656V13.9427C4.60788 13.7464 4.15613 13.6366 3.6793 13.6366C1.96225 13.6366 0.570312 15.0611 0.570312 16.8184C0.570312 18.5756 1.96225 20.0002 3.6793 20.0002C5.39634 20.0002 6.78828 18.5756 6.78828 16.8184V8.04069L16.5594 5.6929V11.2155C16.1555 11.0191 15.7038 10.9093 15.227 10.9093C13.5099 10.9093 12.118 12.3338 12.118 14.0911C12.118 15.8484 13.5099 17.2729 15.227 17.2729ZM6.78828 6.1731V4.40434L16.5594 2.05652V3.82528L6.78828 6.1731ZM16.5594 14.0911C16.5594 13.338 15.9628 12.7275 15.227 12.7275C14.4911 12.7275 13.8945 13.338 13.8945 14.0911C13.8945 14.8442 14.4911 15.4548 15.227 15.4548C15.9628 15.4548 16.5594 14.8442 16.5594 14.0911ZM3.6793 15.4548C4.41517 15.4548 5.01172 16.0653 5.01172 16.8184C5.01172 17.5715 4.41517 18.182 3.6793 18.182C2.94342 18.182 2.34687 17.5715 2.34687 16.8184C2.34687 16.0653 2.94342 15.4548 3.6793 15.4548Z" fill="black"/>
</svg>
