<svg width="28" height="28" viewBox="0 0 28 28" fill="none" xmlns="http://www.w3.org/2000/svg">
<path opacity="0.24" d="M14.1224 28C21.7537 28 27.9401 21.732 27.9401 14C27.9401 6.26801 21.7537 0 14.1224 0C6.49108 0 0.304688 6.26801 0.304688 14C0.304688 21.732 6.49108 28 14.1224 28Z" fill="black"/>
<path fill-rule="evenodd" clip-rule="evenodd" d="M12.1467 8.66611L11.619 9.20512C11.4456 9.392 11.3588 9.61012 11.3588 9.8592C11.3588 10.1133 11.4456 10.329 11.619 10.5063L15.0384 14L11.6191 17.4937C11.4456 17.671 11.3589 17.8867 11.3589 18.1407C11.3589 18.3899 11.4456 18.608 11.6191 18.7949L12.1468 19.3268C12.325 19.5089 12.5384 19.6 12.7871 19.6C13.0403 19.6 13.2514 19.5089 13.4202 19.3268L18.0003 14.647C18.1786 14.4744 18.2677 14.2589 18.2677 14C18.2677 13.746 18.1786 13.528 18.0003 13.3459L13.4202 8.66611C13.2466 8.48876 13.0356 8.39999 12.7871 8.39999C12.5431 8.39999 12.3297 8.48876 12.1467 8.66611Z" fill="white"/>
</svg>
