<svg width="20" height="20" viewBox="0 0 20 20" fill="none" xmlns="http://www.w3.org/2000/svg">
<path opacity="0.24" fill-rule="evenodd" clip-rule="evenodd" d="M13.8503 3.72984L13.1171 3.2963C13.1171 3.2963 12.3516 1.18529 12.287 1.04241C12.043 0.446706 11.3753 0 10.7061 0H8.86857C8.20216 0 7.53738 0.445749 7.27656 1.06812C7.22309 1.18551 6.46602 3.29574 6.46602 3.29574L5.74159 3.73208C5.74159 3.73208 3.5352 3.34267 3.38067 3.32789C2.74948 3.24416 2.03385 3.60662 1.69924 4.19382L0.780466 5.80618C0.447262 6.39092 0.495876 7.1971 0.897436 7.73715C0.971088 7.84283 2.39688 9.57203 2.39688 9.57203C2.39688 9.57203 2.385 9.85686 2.385 10C2.385 10.303 2.39548 10.429 2.39548 10.429C2.39548 10.429 0.971088 12.1572 0.881206 12.2853C0.493941 12.7973 0.445828 13.6066 0.780466 14.1938L1.69924 15.8062C2.03241 16.3909 2.7457 16.7514 3.40802 16.6691C3.5352 16.6573 5.71997 16.2672 5.71997 16.2672L6.45546 16.6921C6.45546 16.6921 7.22309 18.8145 7.28765 18.9574C7.53166 19.5532 8.19929 20 8.86857 20H10.7061C11.3725 20 12.0372 19.5544 12.2981 18.9321C12.3516 18.8147 13.1171 16.7 13.1171 16.7L13.8385 16.269C13.8385 16.269 16.1822 16.6709 16.1875 16.6714C16.8251 16.7558 17.5408 16.3934 17.8755 15.8062L18.7942 14.1938C19.1274 13.6091 19.0789 12.803 18.6774 12.263C18.6038 12.1573 17.1773 10.4365 17.1773 10.4365C17.1773 10.4365 17.1897 10.146 17.1897 10C17.1897 9.69704 17.1808 9.56952 17.1808 9.56952C17.1808 9.56952 18.6038 7.8427 18.6937 7.71452C19.0808 7.20254 19.1288 6.39338 18.7942 5.80618L17.8755 4.19382C17.5422 3.60908 16.8289 3.24864 16.1665 3.33097C16.0393 3.34276 13.8503 3.72984 13.8503 3.72984ZM11.3571 4.30507L11.4896 4.75443L11.9154 4.93847C12.3177 5.11238 12.6977 5.33531 13.0474 5.60185L13.4178 5.88425L13.8689 5.7757C14.524 5.61803 16.0643 5.35659 16.212 5.33832C16.2977 5.32773 17.0362 6.62371 16.9844 6.69354C16.8949 6.81402 15.9014 8.03477 15.4391 8.53081L15.1216 8.87141L15.1767 9.33654C15.2026 9.55535 15.2157 9.77674 15.2157 10C15.2157 10.2233 15.2026 10.4447 15.1767 10.6635L15.1216 11.1286L15.4391 11.4692C15.9014 11.9652 16.8949 13.186 16.9844 13.3065C17.0362 13.3763 16.2626 14.6679 16.212 14.6617C16.0643 14.6434 14.524 14.382 13.8689 14.2243L13.4178 14.1158L13.0474 14.3982C12.6977 14.6647 12.3177 14.8876 11.9154 15.0615L11.4896 15.2456L11.3571 15.6949C11.1643 16.3483 10.6178 17.8296 10.5596 17.9683C10.5259 18.0487 9.04888 18.0486 9.01514 17.9683C8.95693 17.8296 8.41057 16.3483 8.21782 15.695L8.08525 15.2456L7.65945 15.0616C7.2571 14.8877 6.87709 14.6648 6.52745 14.3983L6.15701 14.1159L5.70599 14.2244C5.05075 14.3821 3.51037 14.6435 3.36265 14.6618C3.27702 14.6723 2.53852 13.3763 2.59039 13.3065C2.67985 13.186 3.67332 11.9654 4.13561 11.4694L4.45308 11.1288L4.39797 10.6636C4.37204 10.4448 4.35896 10.2233 4.35896 10C4.35896 9.77667 4.37204 9.55522 4.39797 9.33635L4.45308 8.8712L4.13561 8.53059C3.67332 8.03461 2.67985 6.81398 2.59039 6.69351C2.53852 6.62368 3.27702 5.32766 3.36265 5.33825C3.51037 5.35651 5.05075 5.61788 5.70599 5.77557L6.15701 5.88411L6.52745 5.60173C6.87709 5.33521 7.2571 5.11229 7.65945 4.93839L8.08525 4.75436L8.21782 4.30499C8.41057 3.65167 8.95693 2.1704 9.01514 2.03174C9.04888 1.95136 10.5259 1.95133 10.5596 2.0317C10.6178 2.17035 11.1643 3.65168 11.3571 4.30507ZM9.78735 13C8.15207 13 6.82641 11.6569 6.82641 10C6.82641 8.34315 8.15207 7 9.78735 7C11.4226 7 12.7483 8.34315 12.7483 10C12.7483 11.6569 11.4226 13 9.78735 13ZM10.7743 10C10.7743 10.5523 10.3324 11 9.78734 11C9.24225 11 8.80037 10.5523 8.80037 10C8.80037 9.44771 9.24225 9 9.78734 9C10.3324 9 10.7743 9.44771 10.7743 10Z" fill="black"/>
</svg>
