<svg width="19" height="18" viewBox="0 0 19 18" fill="none" xmlns="http://www.w3.org/2000/svg">
<path opacity="0.24" fill-rule="evenodd" clip-rule="evenodd" d="M4.42506 1C4.42506 0.447715 4.86832 0 5.4075 0H13.3124C13.855 0 14.2949 0.443865 14.2949 1C14.2949 1.55228 13.8516 2 13.3124 2H5.4075C4.86491 2 4.42506 1.55614 4.42506 1ZM0.580284 8.0949L1.37078 16.1041C1.47564 17.1665 2.38244 18 3.43376 18H15.2861C16.3336 18 17.2446 17.1632 17.3491 16.1041L18.1396 8.0949C18.2522 6.95379 17.3978 6 16.2679 6H2.45196C1.31975 6 0.467853 6.95576 0.580284 8.0949ZM2.55514 8.00421L16.1644 8.0079L15.2818 16H3.43808L2.55514 8.00421ZM3.43376 3C2.89519 3 2.4511 3.44772 2.4511 4C2.4511 4.55614 2.89105 5 3.43376 5H15.2862C15.8247 5 16.2688 4.55228 16.2688 4C16.2688 3.44386 15.8289 3 15.2862 3H3.43376Z" fill="black"/>
</svg>
