<svg width="17" height="21" viewBox="0 0 17 21" fill="none" xmlns="http://www.w3.org/2000/svg">
<path opacity="0.24" fill-rule="evenodd" clip-rule="evenodd" d="M13.9949 7.20041C15.4925 8.51081 16.3489 10.1175 16.3489 12.321C16.3489 16.9118 12.8089 20.5268 8.46443 20.5268C4.11603 20.5268 0.557251 16.9093 0.557251 12.321C0.557251 9.79413 1.0977 8.23242 2.68421 5.6366C3.18622 4.81522 4.40516 5.11434 4.4996 6.08209C4.58446 6.95167 4.84503 7.69187 5.22468 8.25935C4.97146 5.19295 6.2854 1.74433 9.52525 0.10596C10.2753 -0.27335 11.1123 0.424512 10.9171 1.26648C10.4113 3.44851 10.9325 4.62244 12.2948 5.8871C12.328 5.91795 12.4977 6.04489 12.7222 6.21279C13.1287 6.51685 13.7148 6.95524 13.9949 7.20041ZM3.14388 9.00737C2.86577 9.66336 2.53121 10.4525 2.53121 12.321C2.53121 15.7681 5.19711 18.478 8.46443 18.478C11.7258 18.478 14.375 15.7728 14.375 12.321C14.375 10.7811 13.8071 9.71579 12.7226 8.76679C12.5514 8.61699 12.1501 8.31457 11.7725 8.02991C11.4154 7.76076 11.0793 7.5075 10.9788 7.41416C9.67093 6.20002 8.87136 4.9071 8.76276 3.18307C8.10149 3.85213 6.58201 5.93208 7.43844 10.0484C7.57121 10.6865 7.1027 11.289 6.4737 11.289C5.22572 11.289 3.9921 10.2984 3.23815 8.78205C3.2079 8.85635 3.17627 8.93095 3.14388 9.00737Z" fill="black"/>
</svg>
