<svg width="18" height="19" viewBox="0 0 18 19" fill="none" xmlns="http://www.w3.org/2000/svg">
<path opacity="0.24" fill-rule="evenodd" clip-rule="evenodd" d="M13.1178 16.7342C11.9074 17.5193 10.4779 17.973 8.94657 17.973C7.41524 17.973 5.98571 17.5193 4.77534 16.7342L3.87898 18.3497C3.60669 18.8405 3.00657 19.0104 2.53121 18.7248C2.05914 18.4412 1.89525 17.817 2.16948 17.3227C2.16948 17.3227 3.20497 15.4627 3.2319 15.4264C1.8805 13.9519 1.05074 11.9552 1.05074 9.75675C1.05074 8.53311 1.3078 7.37195 1.76879 6.32855C1.0273 5.66925 0.557251 4.68904 0.557251 3.59459C0.557251 1.60935 2.10385 0 4.01168 0C5.28815 0 6.40291 0.720432 7.00094 1.79186C7.62332 1.62774 8.27516 1.54054 8.94657 1.54054C9.55368 1.54054 10.1448 1.61184 10.7126 1.74683C11.3165 0.700294 12.4178 0 13.6763 0C15.5841 0 17.1307 1.60935 17.1307 3.59459C17.1307 4.61644 16.7209 5.53869 16.0631 6.19316C16.5625 7.27112 16.8424 8.47992 16.8424 9.75675C16.8424 11.9552 16.0127 13.9519 14.6612 15.4264C14.6882 15.4627 15.7237 17.3227 15.7237 17.3227C15.9979 17.817 15.834 18.4412 15.3619 18.7248C14.8866 19.0104 14.2865 18.8405 14.0142 18.3497L13.1178 16.7342ZM7.95959 5.64844C7.95959 5.08134 8.39768 4.62161 8.94657 4.62161C9.49167 4.62161 9.93355 5.07732 9.93355 5.64844V9.75675C9.93355 10.324 9.49597 10.7838 8.94751 10.7838H6.97168C6.4271 10.7838 5.98564 10.3279 5.98564 9.75675C5.98564 9.18954 6.42322 8.72973 6.97168 8.72973H7.95959V5.64844ZM2.53121 3.5946C2.53121 2.74378 3.19404 2.05405 4.01168 2.05405C4.44524 2.05405 4.8433 2.24978 5.1176 2.56954C4.24504 3.07397 3.47396 3.74546 2.84427 4.54248C2.64683 4.27879 2.53121 3.94821 2.53121 3.5946ZM15.1567 3.5946C15.1567 2.74377 14.4939 2.05405 13.6763 2.05405C13.2783 2.05405 12.9103 2.21892 12.6404 2.49323C13.5168 2.9768 14.2951 3.62706 14.9365 4.40341C15.0769 4.16651 15.1567 3.88851 15.1567 3.5946ZM8.94657 15.9189C5.67601 15.9189 3.0247 13.16 3.0247 9.75676C3.0247 6.3535 5.67601 3.5946 8.94657 3.5946C12.2171 3.5946 14.8684 6.3535 14.8684 9.75676C14.8684 13.16 12.2171 15.9189 8.94657 15.9189Z" fill="black"/>
</svg>
