
<svg width="0" height="0" class="hidden">
  <symbol  xmlns="http://www.w3.org/2000/svg" viewBox="0 0 19 19" id="search">
    <path fill-rule="evenodd" clip-rule="evenodd" d="M18.009 16.486l-3.534-3.58C17.03 9.569 16.585 4.793 13.46 2a7.
    821 
    7.821 0 00-10.806.343c-2.948 2.987-3.096 7.78-.339 10.949a7.823 7.823 0 0010.764 
    1.027l3.533 3.58a.98.98 0 00.96.274.994.994
     0 00.705-.714c.09-.35-.012-.721-.268-.973zM13.366 
     11a5.908 5.908 0 01-5.129 3c-3.27 0-5.921-2.686-5.921-6 
     0-3.313 2.65-6 5.921-6a5.908 5.908 0 015.129 3 6.068 6.068 0 010 6z"></path>
  </symbol>
  <symbol  xmlns="http://www.w3.org/2000/svg" viewBox="0 0 27 20" id="video">
    <path  fill-rule="evenodd" clip-rule="evenodd" d="M22.216 2.868l-3.75 2.814v-3.18C18.466 1.119 17.382 0 16.044
     0H2.72C1.379 0 .297 1.12.297
     2.503v14.994C.297 18.882 1.38 20 2.719 20h13.325c1.34 0 2.422-1.12 2.422-2.503v-3.179l3.75 2.814c.268.202.762.
     368 1.097.368h2.417c.678 0 1.215-.561
      1.215-1.253V3.753c0-.692-.544-1.253-1.215-1.253h-2.417c-.342 0-.826.165-1.097.368zM2.72 17.5v-15h13.324v15H2.
      72zm2.422-3.75c0-.69.543-1.25 1.215-1.25h6.05c.67
       0 1.214.555 1.214 1.25 0 .69-.543 1.25-1.215 1.25h-6.05c-.67 0-1.214-.555-1.214-1.25zM23.502 
       15l-5.021-3.762V8.762l5.017-3.765 1.025.001v10L23.502 15z"></path>
  </symbol>
   <symbol xmlns="http://www.w3.org/2000/svg" viewBox="0 0 22 21" id="apps">
    <path  fill-rule="evenodd" clip-rule="evenodd" d="M.294 2.5C.294 3.88 1.4 5 2.762 5c1.362 0 2.467-1.12 
    2.467-2.5S4.124 0 2.762 0C1.399 0 .294 1.12.294 2.5zM2.762 13C1.399 13 .294 11.88.294 10.5S1.4 8 2.762 
    8c1.362 0 2.467 1.12 2.467 2.5S4.124 13 2.762 13zm0 8C1.399 21 .294 19.88.294 18.5S1.4 16 2.762 16c1.362 0 
    2.467 1.12 2.467 2.5S4.124 21 2.762 21zm7.896 0c-1.363 0-2.468-1.12-2.468-2.5S9.295 16 10.658 16c1.362 0 2.467 1.12 2.467 2.5S12.02 21 10.658 21zm5.428-2.5c0 1.38 1.105 2.5 2.467 2.5 1.363 0 2.468-1.12 2.468-2.5S19.916 16 18.553 16c-1.362 0-2.467 1.12-2.467 2.5zM10.658 13c-1.363 0-2.468-1.12-2.468-2.5S9.295 8 10.658 8c1.362 0 2.467 1.12 2.467 2.5S12.02 13 10.658 13zM8.19 2.5c0 1.38 1.105 2.5 2.468 2.5 1.362 0 2.467-1.12 2.467-2.5S12.02 0 10.658 0C9.295 0 8.19 1.12 8.19 2.5zM18.553 13c-1.362 0-2.467-1.12-2.467-2.5S17.19 8 18.553 8s2.468 1.12 2.468 2.5-1.105 2.5-2.468 2.5zM16.086 2.5c0 1.38 1.105 2.5 2.467 2.5 1.363 0 2.468-1.12 2.468-2.5S19.916 0 18.553 0c-1.362 0-2.467 1.12-2.467 2.5z"></path>
  </symbol>
  <symbol  xmlns="http://www.w3.org/2000/svg" viewBox="0 0 23 26" id="notification">
    <path  fill-rule="evenodd" clip-rule="evenodd" d="M3.991 22.454C1.992 22.454.37 20.866.37 
    18.91c0-1.298.718-2.456 1.814-3.074l-.005-4.61c0-4.083 2.799-7.521 6.635-8.548v-.313C8.814 1.058 9.894 0 11.227
     0c1.332 0 2.412 1.058 2.412 2.364v.313c3.838 1.026 6.635 4.465 6.635 8.555v4.613a3.523 3.523 0 011.81 3.064c0 1.96-1.62 3.546-3.622 3.546h-3.617C14.843 24.412 13.22 26 11.227 26c-2 0-3.62-1.586-3.62-3.543l-3.616-.003zm6.03 0c0 .654.539 1.182 1.206 1.182.662 0 1.204-.53 1.206-1.181H10.02zm7.84-11.222v5.71c0 .328.267.661.588.743l.317.08c.528.133.905.604.905 1.144 0 .653-.54 1.182-1.21 1.182H3.992c-.666 0-1.209-.531-1.209-1.182 0-.542.376-1.011.904-1.144l.327-.083a.8.8 0 00.579-.74v-5.716c0-3.59 2.97-6.499 6.635-6.499 3.666 0 6.634 2.908 6.634 6.505z"></path>
  </symbol>
   <symbol  xmlns="http://www.w3.org/2000/svg" viewBox="0 0 20 18" id="Favourites">
    <path  fill-rule="evenodd" clip-rule="evenodd" d="M15.956 16.178c.213 1.256-.865 2.046-1.983 1.453
     0 0-4.198-2.203-4.157-2.225L5.621 17.63c-1.118.594-2.196-.198-1.982-1.453 0 0 .78-4.71.813-4.677L1.058 
     8.163c-.905-.89-.492-2.169.757-2.352 0 0 4.68-.707 4.66-.665L8.571.857c.56-1.143 1.892-1.142 2.45 0 0 0 2.113 4.273 2.067 4.266l4.69.688c1.25.183 1.662 1.462.757 2.352 0 0-3.374 3.347-3.382 3.301l.802 4.714zM5.6 15.558l3.365-1.786a1.868 1.868 0 011.665 0l3.372 1.789-.65-3.785a1.91 1.91 0 01.514-1.597l2.717-2.673-3.757-.556a1.884 1.884 0 01-1.347-.987L9.8 2.526 8.114 5.963a1.884 1.884 0 01-1.347.987l-3.761.552 2.722 2.677a1.91 1.91 0 01.514 1.597L5.6 15.557z" ></path>
  </symbol>
  <symbol  xmlns="http://www.w3.org/2000/svg" viewBox="0 0 23 16" id="Games">
    <path  fill-rule="evenodd" clip-rule="evenodd" d="M13.332.523c-.786.288-1.121.366-1.88.366-.757
     0-1.092-.078-1.878-.366L9.513.501C8.52.138 7.932 0 6.958 0 4.594 0 2.424 2.283 1.527 5.065.838 7.2.655 
     8.567.597 11.539.653 14.493 1.92 15.986 4.208 16c1.435-.008 2.42-.637 3.33-1.78.14-.176.527-.697.568-.753l.003-.005c.937-1.227 1.905-1.897 3.346-1.906 1.434.01 2.403.679 3.34 1.907l.003.004c.043.058.428.578.568.754.91 1.142 1.894 1.77 3.318 1.779 2.301-.014 3.567-1.508 3.625-4.427-.059-3.006-.243-4.373-.931-6.508C20.48 2.283 18.312 0 15.949 0c-.975 0-1.564.138-2.556.5l-.061.023zM8.942 2.19c.973.356 1.604.478 2.51.478.907 0 1.539-.122 2.512-.478l.061-.022c.807-.296 1.206-.39 1.923-.39 1.407 0 3.02 1.698 3.706 3.825.63 1.95.791 3.156.846 5.97-.04 1.99-.593 2.643-1.815 2.65-.764-.004-1.29-.34-1.893-1.097-.1-.126-.383-.506-.499-.662l-.05-.067c-1.241-1.627-2.654-2.604-4.796-2.618-2.13.014-3.543.99-4.785 2.618l-.049.067c-.116.155-.399.536-.499.662-.602.756-1.13 1.093-1.904 1.097-1.211-.008-1.765-.66-1.805-2.684.056-2.78.218-3.985.847-5.936.686-2.127 2.3-3.824 3.706-3.824.717 0 1.115.093 1.923.389l.061.022zm7.035 3.589a.897.897 0 01-.905-.89c0-.49.405-.888.905-.888s.904.398.904.889c0 .49-.405.889-.904.889zm-.905 2.666c0 .491.405.89.905.89s.904-.399.904-.89a.897.897 0 00-.904-.888c-.5 0-.905.398-.905.888zm2.714-.888a.897.897 0 01-.905-.89c0-.49.405-.888.905-.888s.905.398.905.889c0 .49-.405.889-.905.889zm-4.524-.89c0 .492.405.89.905.89s.905-.398.905-.89a.897.897 0 00-.905-.888c-.5 0-.905.398-.905.889zM6.93 9.334c-1.499 0-2.714-1.194-2.714-2.666C4.215 5.194 5.43 4 6.93 4s2.714 1.194 2.714 2.667c0 1.472-1.215 2.666-2.714 2.666zm.905-2.666c0 .49-.405.889-.905.889a.897.897 0 01-.904-.89c0-.49.405-.888.904-.888.5 0 .905.398.905.889z" ></path>
  </symbol>
  <symbol  xmlns="http://www.w3.org/2000/svg" viewBox="0 0 21 18" id="History">
    <path  fill-rule="evenodd" clip-rule="evenodd" d="M6.864 0a2.694 2.694 0 00-2.692 2.697V12.6H1.481a.9.9
     0 00-.898.9v1.8c0 1.491 1.208 2.7 2.692 2.7h10.767a2.693 2.693 0 002.692-2.695V5.4h2.692a.895.895 0 00.897-
     .898V2.704A2.698 2.698 0 0017.63 0H6.864zm-1.05 16.2a2.69 2.69 0 00.153-.897V2.697A.897.897 0 117.76 2.7v1.8c0
      .497.399.9.898.9h6.28v9.905c0 .494-.4.895-.897.895H5.814zm-3.436-1.8v.9a.897.897 0 101.795.003V14.4H2.377zM9.556 3.6v-.9a2.68 2.68 0 00-.154-.9h8.23a.9.9 0 01.896.904V3.6H9.556z" ></path>
  </symbol>
  <symbol  xmlns="http://www.w3.org/2000/svg" viewBox="0 0 21 19" id="home">
    <path fill-rule="evenodd" clip-rule="evenodd" d="M2.115 10.592a.892.892 0 01-1.269 0
     .91.91 0 010-1.28L9.82.266a.892.892 0 011.268 0l8.973 9.048a.91.91 0 010 1.28.892.892 0 01-1.269 0l-.263-
     .266v6.868c0 .998-.802 1.805-1.795 1.805H4.173a1.8 1.8 0 01-1.795-1.805v-6.868l-.263.265zm2.058 6.598l2.691.
     001V11.76a.9.9 0 01.895-.903h5.389c.494 0 .894.404.894.903v5.433l2.692.002V8.519l-6.281-6.327-6.28 6.327v8.671zm8.075-4.525v4.527h-3.59v-4.525l3.59-.002z"  opacity=".24"></path>
  </symbol>
  <symbol xmlns="http://www.w3.org/2000/svg" viewBox="0 0 21 16" id="Library">
    <path opacity=".24" fill-rule="evenodd" clip-rule="evenodd" d="M2.373 0C1.391 0 .583.794.583
     1.773v12.454c0 .98.804 1.773 1.796 1.773h16.148c.991 0 1.796-.796 1.796-1.777V4.444c0-.983-.805-1.777-
     1.798-1.777h-8.069L9.186.743C8.914.333 8.292 0 7.796 0H2.373zm16.154 14.222l-16.15.005-.004-12.45 5.388.005L8.
     955 3.64c.331.502.896.804 1.501.804h8.072v9.778z" ></path>
  </symbol>
  <symbol  xmlns="http://www.w3.org/2000/svg" viewBox="0 0 19 17" id="Liked">
    <path opacity=".24" fill-rule="evenodd" clip-rule="evenodd" d="M13.006 0c-1.365 0-2.61.53-3.553
     1.404A5.211 5.211 0 005.9 0C2.956 0 .57 2.468.57 5.514c0 4.444 4.423 8.74 8.509 11.245a.759.759 0
      00.751-.001c4.06-2.515 8.506-6.8 8.506-11.244C18.336 2.468 15.95 0 13.006 0zM9.458 14.825c-4.392-2.97-7.111-
      6.44-7.111-9.311 0-2.03 1.59-3.676 3.553-3.676.888 0 1.72.336 2.368.935l.855.792a.491.491 0 00.66 0l.855-.792c.648-.6 1.48-.935 2.368-.935 1.963 0 3.553 1.645 3.553 3.676 0 2.944-2.708 6.34-7.1 9.311z" ></path>
  </symbol>
  <symbol  xmlns="http://www.w3.org/2000/svg" viewBox="0 0 116 25" id="logo">
    <path fill="#fff" d="M8.796 3.999h20.727v17H8.796z"></path>
    <path fill-rule="evenodd" clip-rule="evenodd" d="M12.422 24.822l7.42.136c.011 0 .035 0 .035.017
     4.131.077 8.157-.165 12.277-.466 3.287-.23 4.066-2.612 4.474-5.454a46.44 46.44 0 
     00.354-10.36l-.038-.493c-.247-3.306-.524-7.023-4.436-7.708-.833-.147-1.682-.277-2.527-.3-7.991-.
     26-16.054-.325-24.063.23C3.545.576 2.01 1.98 1.62 4.331a51.319 51.319 0 00-.467 12.725l.014.155c.262 2.974.567
      6.45 4.089 7.168 1.895.394 3.825.41 5.759.425.469.004.937.008 1.406.017zm6.965-9.3l-3.908 2.242V7.163c1.412.808 2.813 1.613 4.215 2.419 1.666.957 3.334 1.915 5.023 2.881l-5.33 3.058z" fill="red"></path>
    <path fill-rule="evenodd" clip-rule="evenodd"
     d="M96.423 22.747c.083-.316.168-.642.261-1.02.072.099.129.18.178.252h.001c.065.093.116.167.17.237 1.54 2.022
      4.645 1.668 5.595-.667.289-.707.519-1.48.555-2.234.088-2.47.124-4.935.076-7.406-.023-.96-.218-1.946-.519-2.865-.466-1.48-1.782-2.158-3.323-1.858-.968.2-1.718.72-2.296 1.516-.034.045-.071.088-.117.143-.057.068-.128.152-.225.275V.866H93.39v22.376h2.904c.042-.167.085-.33.128-.495zm.427-3.084v-8.184c0-.69.33-1.209.873-1.575.72-.477 1.452-.235 1.718.584.141.454.254.938.254 1.404a397.171 397.171 0 01-.142 7.505c-.006.266-.118.531-.23.785-.266.607-.797.86-1.452.707-.667-.153-1.021-.56-1.021-1.226zM87.642 7.505h3.547v15.748h-2.768c-.091-.54-.182-1.095-.287-1.73l-.032-.198c-.123.18-.213.319-.294.442l-.125.19c-.92 1.326-2.225 1.78-3.766 1.538-1.316-.212-2.107-1.226-2.284-2.889a14.036 14.036 0 01-.076-1.492c-.008-2.454-.006-4.913-.003-7.37v-.019l.002-3.678v-.554h3.59v.643l-.002 2.657v.017c-.003 2.668-.005 5.334.013 8.004 0 .507.053 1.032.142 1.538.1.52.478.708.985.673.82-.065 1.387-.672 1.387-1.486V8.2c-.03-.23-.03-.442-.03-.695zm-20.86-.012h-3.564l-.006.424c0 3.827 0 7.671.012 11.498 0 .478.047.95.112 1.427.236 1.527 1.01 2.459 2.272 2.647 1.576.242 2.869-.253 3.79-1.603.1-.16.2-.313.377-.578l.165.968.166.977h2.756V7.516h-3.547v11.988c-.006.82-.496 1.38-1.305 1.491-.584.077-.926-.112-1.062-.696a7.37 7.37 0 01-.153-1.527c-.018-2.648-.016-5.3-.014-7.955l.002-2.658v-.666zM61.389 15.9c-.01.424-.034.849-.058 1.273l-.019.319-.034.425c-.122 1.547-.277 3.525-1.453 4.587-.82.73-1.86.996-2.933 1.032a9.047 9.047 0 01-1.44-.054c-2.261-.341-3.312-1.338-3.69-3.82-.43-2.866-.466-5.779.047-8.644.532-2.966 2.361-4.016 5.206-3.82 2.656.188 3.843 1.927 4.156 4.403.17 1.421.253 2.86.218 4.299zm-3.608-1.407c-.002.288-.004.577-.004.864 0 .934-.036 1.868-.072 2.8-.017.427-.033.854-.046 1.28 0 .343-.118.69-.254 1.009-.171.413-.478.643-.944.643-.479 0-.844-.236-.986-.667-.368-1.11-.328-2.306-.29-3.484.011-.317.022-.632.024-.944.012-1.58.024-3.166.024-4.746 0-.217.063-.439.124-.656l.012-.04c.188-.62.554-.937 1.074-.95.531-.011.956.307 1.098.974.124.577.2 1.167.224 1.75.025.721.02 1.445.016 2.167zm-11.224-2.101l.25-1.235c.225-1.102.445-2.19.682-3.282.19-.884.389-1.769.588-2.654.23-1.02.46-2.042.675-3.065.1-.466.29-.578.732-.566.676.025 1.36.02 2.065.015.286-.001.575-.003.868-.003-.303 1.115-.601 2.18-.895 3.227l-.078.28a2834.63 2834.63 0 00-3.017 10.744 3.308 3.308 0 00-.112.872c-.008 1.305-.005 2.607-.002 3.91l.002 1.957v.637H44.85c-.004-.06-.01-.118-.015-.177-.01-.118-.02-.236-.02-.354 0-.354-.01-.708-.019-1.063-.019-.755-.038-1.51.03-2.256.222-2.301-.389-4.44-1-6.578-.088-.311-.177-.622-.263-.934-.449-1.622-.9-3.246-1.352-4.87-.451-1.625-.903-3.25-1.351-4.87a2.568 2.568 0 01-.062-.271 4.35 4.35 0 00-.05-.237h3.535c.744 3.58 1.493 7.158 2.273 10.773zm61.815 4.11h5.973c0-.732.006-1.442.013-2.143v-.001c.007-.82.014-1.628.011-2.438a10.116 10.116 0 00-.289-1.958c-.337-1.368-1.11-2.411-2.562-2.665a10.437 10.437 0 00-2.745-.1c-1.67.165-2.75 1.15-3.246 2.754a8.14 8.14 0 00-.301 1.173c-.366 2.406-.301 4.829-.124 7.229.065.973.366 1.945.685 2.877.342.996 1.103 1.645 2.125 1.946 1.381.407 2.768.407 4.119-.124 1.718-.666 2.739-2.824 2.172-4.505-.684-.029-1.375-.066-2.076-.105l-.892-.048-.006.103c-.015.28-.026.5-.048.705-.023.26-.059.513-.112.766-.165.779-.578 1.132-1.286 1.12-.679-.005-1.11-.341-1.199-1.126-.089-.814-.126-1.634-.165-2.479a89.17 89.17 0 00-.047-.982zm2.579-2.07l.002-.887c.002-.862.004-1.696-.014-2.533 0-.265-.1-.543-.2-.796-.201-.495-.62-.631-1.122-.631-.501 0-.82.254-.944.708-.309 1.112-.282 2.245-.256 3.384.006.255.012.51.014.766.903-.011 1.723-.011 2.52-.011zM72.09 4.492h3.51l.006 18.738h3.476V4.474h3.489V1.65H72.089v2.842z" ></path>
  </symbol>
  <symbol  xmlns="http://www.w3.org/2000/svg" viewBox="0 0 19 20" id="Music">
    <path  fill-rule="evenodd" clip-rule="evenodd" d="M15.227 17.273c1.717 0 3.109-1.425 3.109-3.182V.93a.93.93
     0 00-.024-.227.888.888 0 00-1.067-.678L5.73 2.791c-.396.095-.668.449-.718.846v10.306a3.038 3.038 0 
     00-1.333-.306C1.962 13.637.57 15.06.57 16.818S1.962 20 3.68 20c1.716 0 3.108-1.424 3.108-3.182V8.041l9.771-2.348v5.523a3.037 3.037 0 00-1.332-.307c-1.717 0-3.109 1.425-3.109 3.182s1.392 3.182 3.109 3.182zm-8.439-11.1V4.404l9.771-2.347v1.768L6.79 6.173zm9.771 7.918c0-.753-.596-1.364-1.332-1.364-.736 0-1.332.611-1.332 1.364 0 .753.596 1.364 1.332 1.364.736 0 1.332-.61 1.332-1.364zM3.68 15.455c.736 0 1.333.61 1.333 1.363s-.597 1.364-1.333 1.364-1.332-.61-1.332-1.364c0-.753.596-1.363 1.332-1.363z" ></path>
  </symbol>
  <symbol  xmlns="http://www.w3.org/2000/svg" viewBox="0 0 14 8" id="Show_more">
    <path  d="M7.127 5.255l4.885-4.95a.979.979 0 01.96-.272.994.994 0 01.705.714c.09.35-.013.721-.27.972L7.825
     7.376a.978.978 0 01-1.395 0L.846 1.72a1.009 1.009 0 01-.27-.972c.09-.35.36-.623.705-.714a.978.978 0
      01.96.272l4.886 4.95z" ></path>
  </symbol>
  <symbol  xmlns="http://www.w3.org/2000/svg" viewBox="0 0 19 18" id="Subscriptions">
    <path  fill-rule="evenodd" clip-rule="evenodd" d="M4.425 1c0-.552.443-1 .982-1h7.905a.99.99 0 01.983 1c0
     .552-.443 1-.983 1H5.408a.989.989 0 01-.983-1zM.58 8.095l.79 8.01C1.477 17.165 2.383 18 3.435 
     18h11.852c1.048 0 1.959-.837 2.063-1.896l.79-8.01C18.253 6.955 17.399 6 16.269 6H2.452C1.32 6 .468 6.956.58 
     8.095zm1.975-.09l13.61.003L15.281 16H3.438l-.883-7.996zM3.434 3a.994.994 0 00-.983 1c0 .556.44 1 .983 1h11.852a.994.994 0 00.983-1c0-.556-.44-1-.983-1H3.434z" ></path>
  </symbol>
  <symbol  xmlns="http://www.w3.org/2000/svg" viewBox="0 0 17 21" id="Trending">
    <path  fill-rule="evenodd" clip-rule="evenodd" d="M13.995 7.2c1.498 1.31 2.354 2.917 2.354 5.121 0 4.59-3.54
     8.206-7.885 8.206-4.348 0-7.907-3.618-7.907-8.206 0-2.527.54-4.089 2.127-6.684.502-.822 1.721-.523
      1.816.445.084.87.345 1.61.725 2.177-.254-3.066 1.06-6.515 4.3-8.153.75-.38 1.587.319 1.392 1.16-.506 2.183.015
       3.356 1.378 4.621.033.031.203.158.427.326.407.304.993.742 1.273.987zM3.144 9.007c-.278.656-.613 1.446-.613 3.314 0 3.447 2.666 6.157 5.933 6.157 3.262 0 5.911-2.705 5.911-6.157 0-1.54-.568-2.605-1.652-3.554-.172-.15-.573-.452-.95-.737-.358-.27-.694-.522-.794-.616C9.67 6.2 8.87 4.907 8.763 3.184c-.662.668-2.181 2.748-1.325 6.864.133.639-.335 1.241-.964 1.241-1.248 0-2.482-.99-3.236-2.507l-.094.225z" ></path>
  </symbol>
  <symbol " xmlns="http://www.w3.org/2000/svg" viewBox="0 0 18 19" id="Watch_later">
    <path  fill-rule="evenodd" clip-rule="evenodd" d="M13.118 16.734a7.635 7.635 0 01-8.343 0L3.88 18.35a.963.963 0
     01-1.348.375 1.047 1.047 0 01-.362-1.402s1.036-1.86 1.063-1.897a8.367 8.367 0 01-2.181-5.67c0-1.223.257-2.384.718-3.427A3.648 3.648 0 01.557 3.595C.557 1.609 2.104 0 4.012 0 5.288 0 6.402.72 7 1.792a7.62 7.62 0 013.712-.045C11.317.7 12.418 0 13.676 0c1.908 0 3.455 1.61 3.455 3.595 0 1.021-.41 1.944-1.068 2.598a8.46 8.46 0 01.78 3.564c0 2.198-.83 4.195-2.182 5.67.027.036 1.063 1.896 1.063 1.896.274.494.11 1.118-.362 1.402a.963.963 0 01-1.348-.375l-.896-1.616zM7.96 5.648c0-.567.438-1.026.987-1.026.545 0 .987.455.987 1.026v4.109c0 .567-.438 1.027-.986 1.027H6.972c-.545 0-.986-.456-.986-1.027 0-.567.437-1.027.986-1.027h.988V5.648zM2.53 3.595c0-.851.663-1.541 1.48-1.541.434 0 .832.196 1.107.516a8.016 8.016 0 00-2.274 1.972 1.58 1.58 0 01-.313-.947zm12.626 0c0-.851-.663-1.541-1.48-1.541a1.45 1.45 0 00-1.037.44 7.992 7.992 0 012.296 1.91c.14-.237.22-.515.22-.81zm-6.21 12.324c-3.271 0-5.922-2.759-5.922-6.162s2.651-6.162 5.922-6.162c3.27 0 5.921 2.759 5.921 6.162s-2.65 6.162-5.921 6.162z" ></path>
  </symbol>
  <symbol  xmlns="http://www.w3.org/2000/svg" viewBox="0 0 20 20" id="setting">
    <path  fill-rule="evenodd" clip-rule="evenodd" d="M13.85 3.73l-.733-.434s-.765-2.11-.83-2.254C12.043.447 11.375 0 10.707 0H8.868c-.667 0-1.332.446-1.592 1.068-.054.118-.811 2.228-.811 2.228l-.724.436s-2.207-.39-2.361-.404c-.632-.084-1.347.279-1.682.866L.78 5.806a1.833 1.833 0 00.117 1.931c.074.106 1.5 1.835 1.5 1.835s-.012.285-.012.428c0 .303.01.429.01.429S.971 12.157.881 12.285c-.387.512-.435 1.322-.1 1.909l.918 1.612c.333.585 1.047.945 1.709.863.127-.012 2.312-.402 2.312-.402l.735.425s.768 2.122.833 2.265c.244.596.911 1.043 1.58 1.043h1.838c.667 0 1.331-.446 1.592-1.068.054-.117.82-2.232.82-2.232l.72-.431s2.344.402 2.35.402c.637.085 1.353-.278 1.688-.865l.918-1.612a1.832 1.832 0 00-.117-1.931c-.073-.106-1.5-1.826-1.5-1.826s.013-.291.013-.437c0-.303-.01-.43-.01-.43s1.424-1.727 1.514-1.855c.387-.512.435-1.322.1-1.909l-.919-1.612c-.333-.585-1.046-.945-1.709-.863-.127.012-2.316.399-2.316.399zm-2.493.575l.133.45.425.183c.403.174.783.397 1.132.664l.37.282.452-.108c.655-.158 2.195-.42 2.343-.438.086-.01.824 1.286.772 1.356-.09.12-1.083 1.34-1.545 1.837l-.317.34.055.466a5.642 5.642 0 010 1.327l-.055.465.317.34c.462.496 1.456 1.717 1.545 1.838.052.07-.721 1.36-.772 1.355-.148-.019-1.688-.28-2.343-.438l-.451-.108-.37.282c-.35.267-.73.49-1.133.664l-.425.184-.133.449c-.193.653-.74 2.135-.797 2.273-.034.08-1.511.08-1.545 0-.058-.138-.604-1.62-.797-2.273l-.133-.45-.426-.183a5.406 5.406 0 01-1.132-.664l-.37-.282-.451.108c-.655.158-2.196.42-2.343.438-.086.01-.824-1.286-.773-1.356.09-.12 1.083-1.34 1.546-1.837l.317-.34-.055-.465a5.638 5.638 0 010-1.328l.055-.465-.317-.34C3.673 8.035 2.68 6.814 2.59 6.694c-.051-.07.687-1.366.773-1.356.147.019 1.688.28 2.343.438l.451.108.37-.282c.35-.267.73-.49 1.132-.664l.426-.184.133-.449c.193-.653.739-2.135.797-2.273.034-.08 1.51-.08 1.545 0 .058.138.604 1.62.797 2.273zM9.787 13c-1.635 0-2.96-1.343-2.96-3s1.325-3 2.96-3c1.636 0 2.961 1.343 2.961 3s-1.325 3-2.96 3zm.987-3c0 .552-.442 1-.987 1a.994.994 0 01-.987-1c0-.552.442-1 .987-1 .545 0 .987.448.987 1z" ></path>
  </symbol>
  <symbol  xmlns="http://www.w3.org/2000/svg" viewBox="0 0 29 28" id="Left">
    <path opacity=".24" d="M14.617 28c7.631 0 13.818-6.268 13.818-14S22.249 0 14.617 0C6.986 0 .8 6.268.8 14s6.187 14 13.818 14z" fill="#000"></path>
    <path fill-rule="evenodd" clip-rule="evenodd" d="M16.593 8.666l.527.54c.174.186.26.404.26.653a.89.89 0 01-.26.647L13.701 14l3.42 3.494a.89.89 0 01.26.647.933.933 0 01-.26.654l-.528.532a.864.864 0 01-.64.273.828.828 0 01-.634-.273l-4.58-4.68a.863.863 0 01-.267-.647c0-.254.089-.472.267-.654l4.58-4.68a.853.853 0 01.633-.266.89.89 0 01.64.266z" fill="#fff"></path>
  </symbol>
    <symbol  xmlns="http://www.w3.org/2000/svg" viewBox="0 0 28 28" id="Right">
    <path opacity=".24" d="M14.122 28c7.632 0 13.818-6.268 13.818-14S21.754 0 14.122 0C6.492 0 .305 6.268.305 14S6.49 28 14.122 28z" fill="#000"></path>
    <path fill-rule="evenodd" clip-rule="evenodd" d="M12.147 8.666l-.528.54a.932.932 0 00-.26.653c0 .254.087.47.26.647L15.039 14l-3.42 3.494a.89.89 0 00-.26.647c0 .249.087.467.26.654l.528.532a.864.864 0 00.64.273.828.828 0 00.633-.273l4.58-4.68a.863.863 0 00.268-.647.902.902 0 00-.268-.654l-4.58-4.68a.853.853 0 00-.633-.266.891.891 0 00-.64.266z" fill="#fff"></path>
  </symbol>
</svg>
