<svg width="0" height="0" class="hidden">
  <symbol  xmlns="http://www.w3.org/2000/svg" viewBox="0 0 19 19" id="search">
    <path fill-rule="evenodd" clip-rule="evenodd" d="M18.009 16.486l-3.534-3.58C17.03 9.569 16.585 4.793 13.46 2a7.821 
    7.821 0 00-10.806.343c-2.948 2.987-3.096 7.78-.339 10.949a7.823 7.823 0 0010.764 
    1.027l3.533 3.58a.98.98 0 00.96.274.994.994
     0 00.705-.714c.09-.35-.012-.721-.268-.973zM13.366 
     11a5.908 5.908 0 01-5.129 3c-3.27 0-5.921-2.686-5.921-6 
     0-3.313 2.65-6 5.921-6a5.908 5.908 0 015.129 3 6.068 6.068 0 010 6z"></path>
  </symbol>
  <symbol  xmlns="http://www.w3.org/2000/svg" viewBox="0 0 27 20" id="video">
    <path  fill-rule="evenodd" clip-rule="evenodd" d="M22.216 2.868l-3.75 2.814v-3.18C18.466 1.119 17.382 0 16.044 0H2.72C1.379 0 .297 1.12.297
     2.503v14.994C.297 18.882 1.38 20 2.719 20h13.325c1.34 0 2.422-1.12 2.422-2.503v-3.179l3.75 2.814c.268.202.762.368 1.097.368h2.417c.678 0 1.215-.561
      1.215-1.253V3.753c0-.692-.544-1.253-1.215-1.253h-2.417c-.342 0-.826.165-1.097.368zM2.72 17.5v-15h13.324v15H2.72zm2.422-3.75c0-.69.543-1.25 1.215-1.25h6.05c.67
       0 1.214.555 1.214 1.25 0 .69-.543 1.25-1.215 1.25h-6.05c-.67 0-1.214-.555-1.214-1.25zM23.502 
       15l-5.021-3.762V8.762l5.017-3.765 1.025.001v10L23.502 15z"></path>
  </symbol>
   <symbol xmlns="http://www.w3.org/2000/svg" viewBox="0 0 22 21" id="apps">
    <path  fill-rule="evenodd" clip-rule="evenodd" d="M.294 2.5C.294 3.88 1.4 5 2.762 5c1.362 0 2.467-1.12 2.467-2.5S4.124 0 2.762 0C1.399 0 .294 1.12.294 2.5zM2.762 13C1.399 13 .294 11.88.294 10.5S1.4 8 2.762 8c1.362 0 2.467 1.12 2.467 2.5S4.124 13 2.762 13zm0 8C1.399 21 .294 19.88.294 18.5S1.4 16 2.762 16c1.362 0 2.467 1.12 2.467 2.5S4.124 21 2.762 21zm7.896 0c-1.363 0-2.468-1.12-2.468-2.5S9.295 16 10.658 16c1.362 0 2.467 1.12 2.467 2.5S12.02 21 10.658 21zm5.428-2.5c0 1.38 1.105 2.5 2.467 2.5 1.363 0 2.468-1.12 2.468-2.5S19.916 16 18.553 16c-1.362 0-2.467 1.12-2.467 2.5zM10.658 13c-1.363 0-2.468-1.12-2.468-2.5S9.295 8 10.658 8c1.362 0 2.467 1.12 2.467 2.5S12.02 13 10.658 13zM8.19 2.5c0 1.38 1.105 2.5 2.468 2.5 1.362 0 2.467-1.12 2.467-2.5S12.02 0 10.658 0C9.295 0 8.19 1.12 8.19 2.5zM18.553 13c-1.362 0-2.467-1.12-2.467-2.5S17.19 8 18.553 8s2.468 1.12 2.468 2.5-1.105 2.5-2.468 2.5zM16.086 2.5c0 1.38 1.105 2.5 2.467 2.5 1.363 0 2.468-1.12 2.468-2.5S19.916 0 18.553 0c-1.362 0-2.467 1.12-2.467 2.5z"></path>
  </symbol>
  <symbol  xmlns="http://www.w3.org/2000/svg" viewBox="0 0 23 26" id="notification">
    <path  fill-rule="evenodd" clip-rule="evenodd" d="M3.991 22.454C1.992 22.454.37 20.866.37 18.91c0-1.298.718-2.456 1.814-3.074l-.005-4.61c0-4.083 2.799-7.521 6.635-8.548v-.313C8.814 1.058 9.894 0 11.227 0c1.332 0 2.412 1.058 2.412 2.364v.313c3.838 1.026 6.635 4.465 6.635 8.555v4.613a3.523 3.523 0 011.81 3.064c0 1.96-1.62 3.546-3.622 3.546h-3.617C14.843 24.412 13.22 26 11.227 26c-2 0-3.62-1.586-3.62-3.543l-3.616-.003zm6.03 0c0 .654.539 1.182 1.206 1.182.662 0 1.204-.53 1.206-1.181H10.02zm7.84-11.222v5.71c0 .328.267.661.588.743l.317.08c.528.133.905.604.905 1.144 0 .653-.54 1.182-1.21 1.182H3.992c-.666 0-1.209-.531-1.209-1.182 0-.542.376-1.011.904-1.144l.327-.083a.8.8 0 00.579-.74v-5.716c0-3.59 2.97-6.499 6.635-6.499 3.666 0 6.634 2.908 6.634 6.505z"></path>
  </symbol>
</svg>